<svg xmlns="http://www.w3.org/2000/svg" viewBox="0 0 205.36 161.75">
    <defs>
        <style>.cls-1{fill:#f57c00;}.cls-2{fill:#fff;}</style>
    </defs>
    <title>Asset 7</title>
    <g id="Layer_2" data-name="Layer 2">
        <g id="Residents">
            <polygon class="cls-1"
                     points="24.74 96.73 53.07 96.73 53.07 89.27 24.74 89.27 24.74 49.01 57.7 49.01 57.7 41.56 16.69 41.56 16.69 145.93 58.14 145.93 58.14 138.48 24.74 138.48 24.74 96.73"/>
            <polygon class="cls-1"
                     points="38.19 0 38.12 0.06 38.06 0 0 38.06 5.65 43.71 38.12 11.24 70.59 43.71 76.24 38.06 38.19 0"/>
            <path class="cls-2"
                  d="M82.43,84.21a20.65,20.65,0,0,0-16.64,8q-6.57,8-6.57,23.61t6.63,23.58a21.31,21.31,0,0,0,33.25,0q6.54-8,6.54-24.23,0-15-6.66-23A20.73,20.73,0,0,0,82.43,84.21Zm10.38,48.94q-4.24,5.78-10.15,5.78-6.31,0-10.58-5.72t-4.27-17.46q0-11.62,4.21-17.37T82.2,92.63q6.31,0,10.58,5.72T97,115.75Q97,127.37,92.81,133.15Z"/>
            <polygon class="cls-2"
                     points="135.33 108.01 154.27 85.58 143.4 85.58 123.47 110.23 123.47 62.6 115.11 62.6 115.11 145.99 123.47 145.99 123.47 122.04 129.4 115.03 145.85 145.99 156.15 145.99 135.33 108.01"/>
            <path class="cls-2"
                  d="M182.15,147.35a20.63,20.63,0,0,0,16.67-8q6.54-8,6.54-24.23,0-15-6.66-23a21.27,21.27,0,0,0-33.19,0q-6.57,8-6.57,23.61t6.63,23.58A20.67,20.67,0,0,0,182.15,147.35Zm-10.41-49q4.21-5.75,10.18-5.75,6.31,0,10.58,5.72t4.27,17.4q0,11.62-4.24,17.4t-10.15,5.78q-6.31,0-10.58-5.72t-4.27-17.46Q167.53,104.14,171.74,98.38Z"/>
            <path class="cls-2"
                  d="M155.14,155.77l-2.12,5.9h.57l.65-1.89h2.33l.65,1.89h.59l-2.12-5.9Zm-.74,3.56,1-2.88h0l1,2.88Z"/>
            <path class="cls-2"
                  d="M161.83,157.9h0a1.13,1.13,0,0,0-.16-.28,1.32,1.32,0,0,0-.68-.46,1.82,1.82,0,0,0-.54-.08,1.68,1.68,0,0,0-1.26.51,1.89,1.89,0,0,0-.49,1.37v.92a1.9,1.9,0,0,0,.48,1.36,1.65,1.65,0,0,0,1.26.51,1.83,1.83,0,0,0,.58-.09,1.36,1.36,0,0,0,.43-.22,1.4,1.4,0,0,0,.27-.28.9.9,0,0,0,.14-.28h0v.79h.52v-6.22h-.55Zm0,1.9a1.55,1.55,0,0,1-.36,1.05,1.21,1.21,0,0,1-1,.41,1.19,1.19,0,0,1-.94-.4,1.64,1.64,0,0,1-.35-1.12v-.65a1.65,1.65,0,0,1,.35-1.13,1.16,1.16,0,0,1,.92-.4,1.27,1.27,0,0,1,1,.4,1.41,1.41,0,0,1,.38,1Z"/>
            <path class="cls-2"
                  d="M168.52,157.09a1.7,1.7,0,0,0-.53.08,1.26,1.26,0,0,0-.4.21,1.51,1.51,0,0,0-.27.28,1.29,1.29,0,0,0-.17.32h0a1.18,1.18,0,0,0-.44-.64,1.37,1.37,0,0,0-.85-.25,1.67,1.67,0,0,0-.53.08,1,1,0,0,0-.37.21,1.37,1.37,0,0,0-.22.26,1.35,1.35,0,0,0-.13.26h0v-.74H164v4.52h.55v-2.91a1.25,1.25,0,0,1,.3-.86,1.14,1.14,0,0,1,1.59,0,1.14,1.14,0,0,1,.29.82v3h.54v-2.93a1.2,1.2,0,0,1,.31-.84,1.05,1.05,0,0,1,.81-.34,1,1,0,0,1,.78.29,1.11,1.11,0,0,1,.28.8v3H170v-3.16a1.38,1.38,0,0,0-.4-1.06A1.53,1.53,0,0,0,168.52,157.09Z"/>
            <path class="cls-2"
                  d="M172,155.34a.43.43,0,0,0-.43.44.41.41,0,0,0,.13.31.42.42,0,0,0,.31.12.43.43,0,0,0,.31-.12.41.41,0,0,0,.13-.31.42.42,0,0,0-.44-.44Z"/>
            <rect class="cls-2" x="171.7" y="157.16" width="0.54" height="4.52"/>
            <path class="cls-2"
                  d="M175.95,157.09a1.9,1.9,0,0,0-.6.09,1.16,1.16,0,0,0-.42.23,1.51,1.51,0,0,0-.25.29,1.27,1.27,0,0,0-.15.31h0v-.85H174v4.52h.55v-2.6a1.69,1.69,0,0,1,.34-1.08,1.19,1.19,0,0,1,1-.43,1,1,0,0,1,.82.32,1.26,1.26,0,0,1,.29.88v2.91h.55v-3.06a1.48,1.48,0,0,0-.42-1.13A1.58,1.58,0,0,0,175.95,157.09Z"/>
            <path class="cls-2"
                  d="M183.19,155.77h-2v5.9h.55v-2.34h1.48a1.86,1.86,0,0,0,1.35-.48,1.93,1.93,0,0,0,0-2.59A1.85,1.85,0,0,0,183.19,155.77Zm.88,2.78a2.12,2.12,0,0,1-1.23.29h-1.13v-2.56h1.46a1.31,1.31,0,0,1,1,.34,1.27,1.27,0,0,1,.34.94A1.13,1.13,0,0,1,184.06,158.55Z"/>
            <path class="cls-2"
                  d="M187.63,157.09a1.92,1.92,0,0,0-1.13.3,1.08,1.08,0,0,0-.47.82h.53a.76.76,0,0,1,.32-.45,1.25,1.25,0,0,1,.72-.17,1.2,1.2,0,0,1,.8.24.9.9,0,0,1,.29.73v.53h-1.28a1.71,1.71,0,0,0-1.16.35,1.19,1.19,0,0,0-.41.95,1.29,1.29,0,0,0,.41,1,1.51,1.51,0,0,0,1.07.37,1.56,1.56,0,0,0,.86-.22,1.48,1.48,0,0,0,.51-.52h0v.66h.53v-3.15a1.3,1.3,0,0,0-.44-1.08A1.81,1.81,0,0,0,187.63,157.09Zm1.06,3.05a1,1,0,0,1-.36.81,1.28,1.28,0,0,1-.89.32,1.12,1.12,0,0,1-.73-.24.82.82,0,0,1-.29-.67.77.77,0,0,1,.25-.6,1.1,1.1,0,0,1,.76-.22h1.27Z"/>
            <path class="cls-2"
                  d="M192.81,157.09a1.9,1.9,0,0,0-.6.09,1.16,1.16,0,0,0-.42.23,1.51,1.51,0,0,0-.25.29,1.27,1.27,0,0,0-.15.31h0v-.85h-.55v4.52h.55v-2.6a1.69,1.69,0,0,1,.34-1.08,1.19,1.19,0,0,1,1-.43,1,1,0,0,1,.82.32,1.26,1.26,0,0,1,.29.88v2.91h.55v-3.06a1.48,1.48,0,0,0-.42-1.13A1.58,1.58,0,0,0,192.81,157.09Z"/>
            <path class="cls-2"
                  d="M197.53,157.09a1.69,1.69,0,0,0-1.31.54,2.1,2.1,0,0,0-.5,1.48v.65a2.07,2.07,0,0,0,.49,1.46,1.77,1.77,0,0,0,1.37.53,2.17,2.17,0,0,0,.71-.11,1.48,1.48,0,0,0,.52-.29,1.66,1.66,0,0,0,.31-.37,1,1,0,0,0,.14-.38h-.58a.77.77,0,0,1-.35.47,1.33,1.33,0,0,1-.76.2,1.21,1.21,0,0,1-1-.4,1.59,1.59,0,0,1-.35-1.07v-.24h3.07v-.44a2.09,2.09,0,0,0-.5-1.48A1.69,1.69,0,0,0,197.53,157.09Zm1.26,2h-2.52V159a1.6,1.6,0,0,1,.34-1.08,1.24,1.24,0,0,1,1.83,0,1.61,1.61,0,0,1,.34,1.08Z"/>
            <rect class="cls-2" x="200.76" y="155.46" width="0.55" height="6.22"/>
        </g>
    </g>
</svg>