<svg xmlns="http://www.w3.org/2000/svg" viewBox="0 0 25 31.65"><defs><style>.cls-1{opacity:0.51;}</style></defs><title>Asset 9</title><g id="Layer_2" data-name="Layer 2"><g id="Comments"><g class="cls-1"><path d="M14.69,0a9,9,0,0,1,0,1.34c-.08.69.21.82.84.81,2.16,0,4.32,0,6.48,0,.61,0,.77.17.72.75s.22,1.59-.12,2-1.34.15-2,.15C14.74,5,8.87,5,3,5c-.66,0-.89-.16-.81-.82s-.29-1.57.16-2,1.25-.12,1.91-.12c1.74,0,3.48,0,5.21,0,.57,0,.82-.11.76-.73a10.47,10.47,0,0,1,0-1.41Z"/><path d="M25,7.38c.09-.72-.18-.86-.87-.86-7.62,0-15.23,0-22.85,0C0,6.53,0,6.53,0,7.77,0,9.4,0,9.43,1.64,9.39c.58,0,.75.14.79.73q.65,10.77,1.35,21.53H21.18q.42-6.74.84-13.49c.17-2.73.36-5.47.53-8.2,0-.36.08-.56.53-.57.61,0,1.45.32,1.78-.17S24.89,8,25,7.38ZM7.71,28.76c-.43-.12-1.19.48-1.25-.5-.38-6-.74-12.09-1.14-18.13,0-.58.11-.7.66-.69,1.87,0,1.88,0,1.89,1.89,0,2.61,0,5.21,0,7.82h.34q0,4.5,0,9C8.22,28.52,8.23,28.91,7.71,28.76Zm6-17.44c0,2.61,0,5.22,0,7.83h-.35c0,3,0,6,0,8.94,0,.85-.5.66-1,.69s-.86,0-.87-.7q-.13-9-.35-18c0-.57.15-.69.69-.68C13.75,9.46,13.74,9.43,13.73,11.32Zm5.84,0c-.36,5.6-.73,11.19-1.05,16.79,0,.61-.28.65-.77.64-1,0-1,0-1-1q0-4.34,0-8.69h.35c0-3,0-6,0-9,0-.51.13-.67.66-.67C19.69,9.43,19.69,9.41,19.57,11.35Z"/></g></g></g></svg>